<svg width="22" height="18" viewBox="0 0 22 18" fill="none" xmlns="http://www.w3.org/2000/svg">
<path fill-rule="evenodd" clip-rule="evenodd" d="M13.6375 11.8002C13.6373 12.8008 12.3398 13.2008 11.7721 12.3753L8.52509 7.65452C5.92098 3.86832 0 3.04618 0 7.63558V14.2765C0 14.5644 0.0159959 14.8486 0.0471508 15.1282C0.700145 20.9886 7.33713 16.9891 7.33851 11.0927C7.33872 10.0921 8.6362 9.6921 9.20391 10.5175L11.3652 13.6598C14.5639 18.3105 22 19.9139 22 14.2765V7.63558C22 3.41857 18.5677 0 14.3338 0C13.9507 0 13.6402 0.309238 13.6401 0.690761L13.6375 11.8002Z" fill="white"/>
</svg>
